<?xml version="1.0" standalone="no"?>
<!DOCTYPE svg PUBLIC "-//W3C//DTD SVG 20010904//EN"
 "http://www.w3.org/TR/2001/REC-SVG-20010904/DTD/svg10.dtd">
<svg version="1.0" xmlns="http://www.w3.org/2000/svg"
 width="100.000000pt" height="100.000000pt" viewBox="0 0 100.000000 100.000000"
 preserveAspectRatio="xMidYMid meet">
<metadata>
Created by potrace 1.11, written by Peter Selinger 2001-2013
</metadata>
<g transform="translate(0.000000,100.000000) scale(0.100000,-0.100000)"
fill="#000000" stroke="none">
<path d="M512 856 c-47 -16 -99 -61 -122 -105 -16 -32 -23 -38 -44 -34 -13 3
-40 0 -60 -7 -37 -12 -96 -71 -96 -96 0 -8 -15 -21 -33 -29 -19 -8 -39 -21
-47 -29 -7 -9 -22 -16 -34 -17 -16 0 -17 -2 -6 -7 9 -4 17 -23 19 -46 1 -22 7
-50 12 -62 5 -14 4 -26 -1 -29 -14 -9 -12 -49 2 -63 7 -7 35 -12 63 -12 51 0
52 -1 70 -40 51 -114 188 -153 289 -84 l41 29 38 -19 c47 -22 96 -15 129 19
17 18 34 25 65 25 44 0 103 38 103 66 0 8 9 14 20 14 11 0 20 5 20 10 0 6 -6
9 -12 8 -7 -2 -13 4 -14 12 0 8 -7 29 -14 45 -18 39 -20 165 -3 165 7 0 20 11
28 24 20 31 5 73 -29 82 -13 3 -27 12 -30 20 -3 8 -14 14 -25 14 -10 0 -26 11
-35 24 -8 14 -25 28 -37 31 -12 4 -34 20 -48 35 -53 56 -140 79 -209 56z"/>
</g>
</svg>
